<svg width="34" height="34" viewBox="0 0 34 34" fill="none" xmlns="http://www.w3.org/2000/svg">
<rect width="34" height="34" rx="10" fill="#D71E1E"/>
<path d="M25.5 26.9167H8.50004C8.12432 26.9167 7.76398 26.7674 7.49831 26.5017C7.23263 26.2361 7.08337 25.8757 7.08337 25.5V8.49999C7.08337 8.12427 7.23263 7.76394 7.49831 7.49826C7.76398 7.23258 8.12432 7.08333 8.50004 7.08333H25.5C25.8758 7.08333 26.2361 7.23258 26.5018 7.49826C26.7675 7.76394 26.9167 8.12427 26.9167 8.49999V25.5C26.9167 25.8757 26.7675 26.2361 26.5018 26.5017C26.2361 26.7674 25.8758 26.9167 25.5 26.9167Z" stroke="black" stroke-width="2" stroke-linecap="round" stroke-linejoin="round"/>
<path d="M13.9967 13.9967L20.0034 20.0033" stroke="black" stroke-width="2" stroke-linecap="round" stroke-linejoin="round"/>
<path d="M13.9967 20.0033L20.0034 13.9967" stroke="black" stroke-width="2" stroke-linecap="round" stroke-linejoin="round"/>
</svg>
