<svg width="34" height="34" viewBox="0 0 34 34" fill="none" xmlns="http://www.w3.org/2000/svg">
<rect width="34" height="34" rx="10" fill="#1ED760"/>
<path d="M13 8H24C24.2652 8 24.5196 8.10536 24.7071 8.29289C24.8946 8.48043 25 8.73478 25 9V25C25 25.2652 24.8946 25.5196 24.7071 25.7071C24.5196 25.8946 24.2652 26 24 26H10C9.73478 26 9.48043 25.8946 9.29289 25.7071C9.10536 25.5196 9 25.2652 9 25V12L13 8ZM13 26H21V20H13V26ZM14 12H20V8H14V12Z" stroke="black" stroke-width="2" stroke-linecap="round" stroke-linejoin="round"/>
</svg>
